<?xml version="1.0" encoding="UTF-8"?>
<svg version="1.1" xmlns="http://www.w3.org/2000/svg" width="1080" height="1080">
<path d="M0 0 C356.4 0 712.8 0 1080 0 C1080 356.4 1080 712.8 1080 1080 C723.6 1080 367.2 1080 0 1080 C0 723.6 0 367.2 0 0 Z " fill="#FEFEFE" transform="translate(0,0)"/>
<path d="M0 0 C5.37990496 0.62765558 7.76447419 2.99708593 11.01171875 6.98828125 C13.89504056 11.55101156 14.13054673 16.21364589 14.1875 21.5 C14.19765137 22.17264893 14.20780273 22.84529785 14.21826172 23.53833008 C14.13107348 28.56024997 12.91823804 32.01475451 10.75 36.4375 C13.7639237 36.71907765 15.256095 36.799697 17.7421875 34.9765625 C18.36351562 34.34492188 18.98484375 33.71328125 19.625 33.0625 C25.23632532 27.88039919 30.89188338 26.93498402 38.375 27.12890625 C42.1059635 27.61368605 44.10751499 28.79501499 46.75 31.4375 C47.75 35 47.75 35 47.75 38.4375 C47.09 39.4275 46.43 40.4175 45.75 41.4375 C42.16634525 41.58354236 38.70881805 41.45371605 35.13476562 41.23242188 C31.01324736 41.08560845 29.26785239 41.09647526 25.70703125 43.44140625 C25.06121094 44.10011719 24.41539062 44.75882812 23.75 45.4375 C24.23875674 48.56554313 25.07023835 51.23615569 26.3125 54.125 C28.9941338 61.15272995 28.41932413 68.24040784 25.79296875 75.20703125 C22.87529892 81.44669219 18.9094643 88.00877236 12.75 91.4375 C10.59108364 92.20952629 8.42341062 92.9572735 6.25 93.6875 C0.40572612 95.79646308 -1.83024454 97.76332431 -4.8125 103.09765625 C-10.84659357 112.9194553 -22.38656419 118.24296784 -33.1953125 120.9375 C-40.83187783 122.18747489 -48.72199725 122.37097873 -56.125 120 C-62.69938529 118.33968914 -68.83166237 122.13820726 -74.6875 124.8359375 C-78.25 126.4375 -78.25 126.4375 -80.25 126.4375 C-79.81300894 121.10459058 -77.68726841 117.83118246 -74.625 113.625 C-70.75215742 108.18868416 -70.75215742 108.18868416 -70.1875 101.75 C-70.53531469 100.31094989 -70.88972699 98.87348177 -71.25 97.4375 C-72.10179294 86.8624103 -70.49148274 76.70435198 -64.23828125 67.9609375 C-63.06858932 66.46050824 -63.06858932 66.46050824 -63.25 64.4375 C-63.95125 64.29054688 -64.6525 64.14359375 -65.375 63.9921875 C-75.94069204 61.49432009 -82.87147426 56.20162821 -89.25 47.4375 C-93.6645917 39.31982589 -94.4519142 30.49462121 -93.25 21.4375 C-90.1770283 12.3358739 -82.94452379 7.23615841 -75 2.5 C-65.45309172 -0.20495734 -56.01219273 0.85339319 -47.25 5.4375 C-36.00831331 12.3742307 -28.75480553 23.86070945 -21.25 34.4375 C-19.6721875 33.9425 -19.6721875 33.9425 -18.0625 33.4375 C-12.19701627 31.93678164 -6.25907057 32.27261697 -0.25 32.4375 C1.5670783 27.0998325 2.60344916 22.08260345 1.75 16.4375 C0.10463518 13.37371723 -1.41530704 11.18276157 -4 8.875 C-5.25 7.4375 -5.25 7.4375 -5.5625 4.875 C-5.05970668 0.95321207 -3.81720741 0.51385484 0 0 Z " fill="#0A0908" transform="translate(212.25,449.5625)"/>
<path d="M0 0 C0.79046219 -0.00619858 1.58092438 -0.01239716 2.39533997 -0.01878357 C4.0653867 -0.02586984 5.73550424 -0.02272846 7.40551758 -0.01000977 C9.93251459 0.00377254 12.4557421 -0.03012494 14.98242188 -0.06835938 C24.79901217 -0.11571945 33.07102704 0.30261503 40.65454102 7.30761719 C45.29287289 12.18884331 47.86841297 17.62322997 48.26953125 24.37890625 C48.11738712 30.22303086 45.6743341 34.6139555 42.76953125 39.56640625 C42.27453125 40.55640625 42.27453125 40.55640625 41.76953125 41.56640625 C42.24003906 41.92992187 42.71054687 42.2934375 43.1953125 42.66796875 C48.81886264 47.20872352 51.54339047 51.35883088 52.76953125 58.56640625 C53.65639711 68.03115499 51.93347854 75.91076221 45.95703125 83.44140625 C40.34851562 89.43039907 32.96985627 92.46931441 24.78125 92.87280273 C23.34006083 92.90583033 21.89855986 92.92690111 20.45703125 92.9375 C19.68447998 92.94652847 18.91192871 92.95555695 18.1159668 92.96485901 C16.49238922 92.97928202 14.86875457 92.98822831 13.24511719 92.99194336 C10.77569385 93.00387647 8.30874392 93.05316499 5.83984375 93.10351562 C4.25391831 93.11297807 2.6679777 93.12021396 1.08203125 93.125 C0.35266357 93.14453232 -0.3767041 93.16406464 -1.12817383 93.18418884 C-5.86590977 93.14291353 -8.82717574 92.03329998 -12.69848633 89.32411194 C-16.76787643 84.65513531 -17.60772322 79.44215003 -17.63452148 73.44116211 C-17.64138474 72.76702774 -17.64824799 72.09289337 -17.65531921 71.39833069 C-17.67347023 69.19241678 -17.66976801 66.9872218 -17.6640625 64.78125 C-17.6686289 63.23620882 -17.67393584 61.69116966 -17.6799469 60.14613342 C-17.68885417 56.91756912 -17.68648104 53.68925251 -17.67651367 50.46069336 C-17.66500775 46.33251022 -17.68527159 42.20518044 -17.71443081 38.07710934 C-17.73281084 34.88996496 -17.73249715 31.70302462 -17.72679329 28.51584053 C-17.7266404 26.99406293 -17.73265828 25.47227123 -17.74508476 23.95054436 C-17.76003402 21.8205752 -17.7492929 19.69217724 -17.73217773 17.56225586 C-17.73201157 16.35315048 -17.7318454 15.1440451 -17.73167419 13.89830017 C-16.97589272 8.8740457 -14.43806941 5.83018665 -10.99487305 2.22680664 C-7.34782215 0.03625704 -4.13578864 -0.02727234 0 0 Z " fill="#EEAA42" transform="translate(710.23046875,476.43359375)"/>
<path d="M0 0 C0.78874512 0.00572021 1.57749023 0.01144043 2.39013672 0.01733398 C12.30424639 0.31748593 20.43410808 3.72869484 27.62890625 10.609375 C34.37531765 18.18539152 36.80929629 25.89415339 36.625 35.984375 C35.81116666 45.14000012 33.0058813 53.98510886 26.3125 60.5 C15.97983225 69.03907259 5.35562705 70.63189599 -7.6875 69.5 C-15.94888557 67.83215635 -22.26845976 62.80511394 -27.6875 56.5 C-33.34170278 47.46245073 -35.67846699 39.12149122 -34.6875 28.5 C-32.19406265 17.9990667 -27.16466981 10.63173529 -18.12890625 4.82421875 C-11.91814528 1.455502 -6.98688872 -0.05908416 0 0 Z " fill="#040404" transform="translate(651.6875,501.5)"/>
<path d="M0 0 C3.67135105 1.92471949 6.31968282 4.10356281 8.9375 7.3125 C8.9375 7.9725 8.9375 8.6325 8.9375 9.3125 C9.5975 9.3125 10.2575 9.3125 10.9375 9.3125 C11.17597656 8.71824219 11.41445313 8.12398438 11.66015625 7.51171875 C13.20851091 4.84589712 14.78865147 3.77703543 17.375 2.125 C18.15746094 1.61582031 18.93992187 1.10664063 19.74609375 0.58203125 C26.13207253 -3.11751083 34.75722689 -2.44385376 41.9375 -1.6875 C48.51301284 0.06706328 52.76632018 3.47284825 56.68359375 8.95703125 C60.45987424 16.0507918 61.39603444 21.90016491 61.37109375 29.83203125 C61.3763356 30.81241867 61.38157745 31.79280609 61.38697815 32.80290222 C61.39336706 34.86102352 61.39210223 36.91918149 61.38354492 38.97729492 C61.37497747 42.13330082 61.40393221 45.28752926 61.43554688 48.44335938 C61.43715762 50.44791613 61.43658379 52.45247608 61.43359375 54.45703125 C61.44482773 55.40077103 61.45606171 56.3445108 61.46763611 57.31684875 C61.39831998 63.78140544 61.39831998 63.78140544 59.12524414 66.40112305 C55.86243664 67.76035309 53.42897694 67.74893462 49.9375 67.3125 C47.74804688 65.82519531 47.74804688 65.82519531 45.9375 63.3125 C45.56700206 60.31176668 45.42673766 57.66828181 45.46875 54.671875 C45.46170044 53.83086243 45.45465088 52.98984985 45.4473877 52.12335205 C45.41796504 48.53503511 45.43446397 44.94726351 45.44677734 41.35888672 C45.449173 38.73372566 45.42815413 36.10942839 45.40625 33.484375 C45.41756958 32.68513611 45.42888916 31.88589722 45.44055176 31.06243896 C45.38257799 24.52838384 43.62984976 19.13332288 39.0546875 14.33984375 C34.62938826 12.1925122 29.71297992 12.74353385 24.9375 13.3125 C19.82703183 15.64359074 17.99819462 18.17767248 15.9375 23.3125 C15.54586443 26.29918679 15.56688418 29.24536498 15.6015625 32.25390625 C15.58905655 33.98893608 15.57601973 35.72396215 15.5625 37.45898438 C15.55856406 40.17355588 15.56256852 42.88775819 15.57714844 45.60229492 C15.58572265 48.23672135 15.56404162 50.86961489 15.5390625 53.50390625 C15.55240631 54.31235489 15.56575012 55.12080353 15.57949829 55.95375061 C15.52400543 60.19407271 15.29416373 61.84852118 12.62255859 65.32397461 C9.9375 67.3125 9.9375 67.3125 6.375 67.9375 C2.9375 67.3125 2.9375 67.3125 0.75415039 65.32397461 C-1.69045383 61.27153635 -1.61340977 58.14794104 -1.56640625 53.50390625 C-1.57582748 52.65956528 -1.58524872 51.8152243 -1.59495544 50.94529724 C-1.62355484 48.25494989 -1.62668592 45.56548688 -1.625 42.875 C-1.62861484 40.18821291 -1.63823047 37.50206818 -1.66575623 34.81541443 C-1.68246223 33.14709028 -1.68548525 31.47855507 -1.67274475 29.81019592 C-1.72409807 24.10877509 -2.82856132 20.01184257 -6.5625 15.5 C-10.25744138 12.57483807 -14.84575483 12.91729861 -19.33203125 12.9765625 C-23.80409986 13.52677409 -25.17190384 14.84378461 -28.0625 18.3125 C-30.70708309 24.18403586 -31.48401604 28.91026048 -31.43359375 35.30078125 C-31.45095398 36.99284079 -31.46853854 38.68489804 -31.48632812 40.37695312 C-31.49644605 43.01476959 -31.4999824 45.652448 -31.49829102 48.2902832 C-31.50184922 50.85669579 -31.52911791 53.42205552 -31.55859375 55.98828125 C-31.55041122 56.77890457 -31.5422287 57.56952789 -31.53379822 58.3841095 C-31.60794627 63.81276639 -31.60794627 63.81276639 -33.87524414 66.30541992 C-37.12898548 67.80354282 -39.53140678 67.75388665 -43.0625 67.3125 C-45.82770094 65.21470812 -46.92983614 64.02603451 -47.57043457 60.58056641 C-47.57361694 59.53562012 -47.57679932 58.49067383 -47.58007812 57.4140625 C-47.59268677 56.22603027 -47.60529541 55.03799805 -47.61828613 53.81396484 C-47.60614075 51.89511475 -47.60614075 51.89511475 -47.59375 49.9375 C-47.5975769 48.62088379 -47.60140381 47.30426758 -47.60534668 45.94775391 C-47.61123724 43.16354566 -47.60269414 40.37985151 -47.58398438 37.59570312 C-47.56119376 34.03100667 -47.5743194 30.46751482 -47.59827423 26.90286255 C-47.6162233 23.4976457 -47.60364777 20.09275106 -47.59375 16.6875 C-47.60184692 15.4082666 -47.60994385 14.1290332 -47.61828613 12.81103516 C-47.60567749 11.62300293 -47.59306885 10.4349707 -47.58007812 9.2109375 C-47.57689575 8.16599121 -47.57371338 7.12104492 -47.57043457 6.04443359 C-46.92983614 2.59896549 -45.82770094 1.41029188 -43.0625 -0.6875 C-39.28385599 -1.1598305 -36.99964263 -1.19211526 -33.625 0.625 C-32.0625 2.3125 -32.0625 2.3125 -32.0625 5.3125 C-31.37542969 4.89097656 -30.68835938 4.46945312 -29.98046875 4.03515625 C-29.07941406 3.48730469 -28.17835938 2.93945312 -27.25 2.375 C-26.35667969 1.82972656 -25.46335937 1.28445313 -24.54296875 0.72265625 C-17.47155366 -3.29747107 -7.43132686 -3.10787363 0 0 Z " fill="#030303" transform="translate(553.0625,503.6875)"/>
<path d="M0 0 C1.55074219 -0.02416992 1.55074219 -0.02416992 3.1328125 -0.04882812 C12.37922936 -0.05465081 20.14261133 1.78744586 28.25 6.3125 C29.61125 7.055 29.61125 7.055 31 7.8125 C33.25 9.3125 33.25 9.3125 35.25 12.3125 C35.6752996 16.21107963 35.78951751 18.44927199 33.6875 21.8125 C31.00918458 23.46069411 29.52700335 23.69845286 26.453125 23.0703125 C22.4180664 21.68236681 18.68858191 19.67601532 14.921875 17.6875 C7.29134562 13.76067786 -3.6586504 13.96737801 -11.9140625 16.1484375 C-19.81201541 19.79176562 -25.47370013 26.30376698 -28.75 34.3125 C-31.47629387 43.71501286 -31.40004785 56.27381393 -27.25 65.125 C-23.48377962 71.39908006 -18.02249368 77.29668424 -10.98046875 79.875 C-0.38535696 81.95320056 10.22485385 80.79361344 19.375 74.95703125 C23.63713053 71.64500065 25.63546374 68.44102696 27.25 63.3125 C27.25 61.9925 27.25 60.6725 27.25 59.3125 C26.60450195 59.3031543 25.95900391 59.29380859 25.29394531 59.28417969 C22.36186056 59.23040899 19.43135992 59.1467766 16.5 59.0625 C15.48421875 59.04832031 14.4684375 59.03414062 13.421875 59.01953125 C5.92537148 58.77293574 5.92537148 58.77293574 2.57421875 56.48828125 C0.63040118 53.2944571 0.78467315 50.96863954 1.25 47.3125 C2.29150391 45.62695312 2.29150391 45.62695312 4.25 44.3125 C6.91943544 43.98984161 9.35146665 43.8444828 12.0234375 43.84375 C12.78419586 43.83613647 13.54495422 43.82852295 14.32876587 43.82067871 C15.93756837 43.80987903 17.54644098 43.80702411 19.15527344 43.81152344 C21.60992334 43.81249404 24.06142803 43.77091546 26.515625 43.7265625 C28.08072267 43.72135385 29.64583117 43.71866733 31.2109375 43.71875 C31.94130219 43.70235474 32.67166687 43.68595947 33.42416382 43.66906738 C37.38222467 43.72239481 39.0892924 44.18361372 42.21533203 46.69067383 C45.59870936 51.05041575 44.89041116 55.03266574 44.25 60.3125 C42.10242532 71.96573307 35.87705077 81.46952784 26.25 88.3125 C13.73688423 95.70441781 -0.26516138 97.6304292 -14.53125 94.4765625 C-27.92161989 89.72616937 -37.71672651 80.07255915 -43.92578125 67.4296875 C-48.5460537 55.56149951 -49.02676604 40.05270429 -44.75 28 C-39.11493588 15.96794759 -29.93666524 7.40958432 -17.75 2.3125 C-16.92242187 1.95285156 -16.09484375 1.59320313 -15.2421875 1.22265625 C-10.15763083 -0.10251344 -5.23259115 -0.01607061 0 0 Z " fill="#050505" transform="translate(313.75,475.6875)"/>
<path d="M0 0 C0.91265625 -0.02900391 1.8253125 -0.05800781 2.765625 -0.08789062 C11.31281771 -0.1670313 18.39674443 2.57221437 25.23828125 7.69140625 C30.67538672 13.07660617 33.63912316 19.65640894 34.125 27.1875 C34.05753071 31.21316737 33.15923508 33.92553074 30.875 37.3125 C26.29528764 41.07390956 21.83625571 40.70322194 16.19921875 40.60546875 C15.2740596 40.60122391 14.34890045 40.59697906 13.39570618 40.59260559 C10.4510037 40.57585993 7.5069944 40.53821522 4.5625 40.5 C2.56185887 40.48494785 0.56120697 40.47126037 -1.43945312 40.45898438 C-6.33490107 40.42596983 -11.22983315 40.37421575 -16.125 40.3125 C-14.91771894 45.74256689 -14.91771894 45.74256689 -11.1875 49.6875 C-4.13045643 53.43205373 4.31903029 53.57168761 11.984375 51.453125 C16.24076149 49.89821281 16.24076149 49.89821281 19.875 47.3125 C26.91346154 46.73557692 26.91346154 46.73557692 30.375 48.8125 C32.46991956 52.30403259 32.74780239 55.40826788 31.875 59.3125 C27.41926156 65.63677391 19.12824952 68.56988299 11.7109375 69.98828125 C-1.2681172 71.47211257 -12.67712132 71.28845038 -23.71484375 63.48046875 C-30.9535846 57.53226517 -33.88697539 51.28348473 -36.125 42.3125 C-37.22407158 30.4910906 -35.61648333 20.73036475 -28.125 11.3125 C-19.93229967 2.97312728 -11.45306505 0.11831679 0 0 Z " fill="#EEAA43" transform="translate(871.125,500.6875)"/>
<path d="M0 0 C5.90548883 4.48626652 10.33967148 9.61337272 12.421875 16.83984375 C12.92020753 22.40991537 13.28914502 27.8655021 10.421875 32.83984375 C5.20144235 36.27668439 0.66929972 36.23782873 -5.3515625 36.1328125 C-6.2753067 36.12856766 -7.1990509 36.12432281 -8.15078735 36.11994934 C-11.0852033 36.10323048 -14.01891856 36.06559091 -16.953125 36.02734375 C-18.94920879 36.01228813 -20.94530341 35.99860126 -22.94140625 35.98632812 C-27.82058022 35.9533492 -32.69923403 35.90161389 -37.578125 35.83984375 C-37.12313564 37.14102717 -36.65988675 38.43932467 -36.19311523 39.73632812 C-35.9360228 40.45961304 -35.67893036 41.18289795 -35.41404724 41.92810059 C-34.29887987 44.47847368 -33.2084442 45.30697793 -30.640625 46.33984375 C-21.70800572 49.60256995 -12.23307221 48.42006859 -3.578125 44.83984375 C-2.588125 44.17984375 -1.598125 43.51984375 -0.578125 42.83984375 C2.43708379 42.50482055 4.52161258 42.27379656 7.421875 42.83984375 C10.38528504 45.35874228 11.2560151 46.97368649 11.984375 50.77734375 C11.221981 54.92815555 9.70683878 57.30980953 6.421875 59.83984375 C-5.74991103 66.17257718 -20.71097593 68.26545081 -34.140625 64.71484375 C-42.35302792 61.72218845 -50.4716392 55.02334884 -54.42749023 47.14916992 C-56.71821061 41.72936223 -57.06450635 36.73699885 -57.015625 30.90234375 C-57.03560547 30.05994141 -57.05558594 29.21753906 -57.07617188 28.34960938 C-57.06915273 19.23174218 -53.73155789 12.30931886 -47.56640625 5.6953125 C-35.22895862 -5.81802272 -14.7821991 -8.87349522 0 0 Z " fill="#EEAA43" transform="translate(820.578125,505.16015625)"/>
<path d="M0 0 C2.18066406 1.0168457 2.18066406 1.0168457 4 3 C4.42592854 5.84415877 4.60484037 8.31878755 4.609375 11.16796875 C4.63417938 12.36018791 4.63417938 12.36018791 4.65948486 13.57649231 C4.7080462 16.11357281 4.72935279 18.65005367 4.75 21.1875 C4.77815304 22.90823343 4.80807954 24.62893882 4.83984375 26.34960938 C4.91380676 30.56635688 4.96333118 34.78276993 5 39 C5.51949219 38.66226563 6.03898437 38.32453125 6.57421875 37.9765625 C15.4297716 32.3129372 22.5168888 30.9764691 33 32 C41.3075347 34.35947155 46.67454926 39.67773959 51.16040039 46.85717773 C55.20169106 55.25062759 54.6377036 64.37275435 54.57641602 73.47900391 C54.5624304 76.38948343 54.59684034 79.2968164 54.63476562 82.20703125 C54.63571588 84.06250078 54.63386307 85.91797434 54.62890625 87.7734375 C54.64216446 88.64012054 54.65542267 89.50680359 54.66908264 90.39974976 C54.57654885 96.36749146 54.57654885 96.36749146 51.68334961 99.54150391 C48.13249872 101.47151784 45.98113019 101.65145767 42 101 C38.93503036 98.21372621 37.75966678 96.0175491 37.51757812 91.96337891 C37.50339461 90.38449723 37.5090583 88.80535192 37.53125 87.2265625 C37.52420044 86.3845932 37.51715088 85.5426239 37.5098877 84.67514038 C37.48049087 81.08860263 37.49699448 77.50261324 37.50927734 73.91601562 C37.51166807 71.29003895 37.49068577 68.66493099 37.46875 66.0390625 C37.48006958 65.23779938 37.49138916 64.43653625 37.50305176 63.61099243 C37.45254139 57.94150251 36.21935873 54.68603867 33 50 C29.10810548 46.34397787 24.81929514 46.55698277 19.7265625 46.71484375 C15.79532783 47.12599007 13.39905132 47.94640649 10 50 C5.38316007 55.89045094 4.71721923 62.36815102 4.7265625 69.57421875 C4.70629219 71.22722054 4.68544179 72.8802153 4.6640625 74.53320312 C4.64138563 77.12058509 4.62495464 79.70768888 4.61914062 82.29516602 C4.60964584 84.80535088 4.57593336 87.31430797 4.5390625 89.82421875 C4.54410797 90.5992424 4.54915344 91.37426605 4.55435181 92.17277527 C4.45635543 97.50122573 4.45635543 97.50122573 2.18505859 99.98364258 C-1.06649497 101.49606911 -3.46582189 101.44177226 -7 101 C-9.42375335 99.37112841 -10.78355427 98.08696591 -11.36671448 95.15840149 C-11.52293087 92.78767636 -11.54023781 90.44810772 -11.51757812 88.07226562 C-11.5245874 87.17102463 -11.53159668 86.26978363 -11.53881836 85.3412323 C-11.55642144 82.36259131 -11.54476731 79.38490063 -11.53125 76.40625 C-11.53394425 74.33646462 -11.5378261 72.26668046 -11.54284668 70.19689941 C-11.54874487 65.85917103 -11.54016829 61.52177212 -11.52148438 57.18408203 C-11.49869483 51.6219078 -11.51181617 46.06050558 -11.53577423 40.49835968 C-11.55022342 36.22440771 -11.54563021 31.95063899 -11.53526306 27.67668152 C-11.53259335 25.62574675 -11.53587408 23.57479539 -11.54518127 21.52388 C-11.55533224 18.65804938 -11.539866 15.7934716 -11.51757812 12.92773438 C-11.52567505 12.07878098 -11.53377197 11.22982758 -11.54211426 10.35514832 C-11.48744146 6.56351655 -11.44061364 4.61481869 -9.18640137 1.46936035 C-5.99597746 -0.67474844 -3.75627784 -0.46953473 0 0 Z " fill="#030303" transform="translate(374,470)"/>
<path d="M0 0 C3.09633951 0.7547699 4.11377399 1.94632096 6.03515625 4.49609375 C6.62098958 7.46997866 6.56866862 10.40282338 6.5390625 13.42578125 C6.54848373 14.29373322 6.55790497 15.16168518 6.56761169 16.05593872 C6.59626609 18.82789724 6.59934039 21.59899911 6.59765625 24.37109375 C6.60126946 27.13592246 6.6108781 29.90012642 6.63841248 32.66482544 C6.65513398 34.38323118 6.65812918 36.10184203 6.645401 37.82028198 C6.68887224 42.79342968 7.31239169 46.17045496 10.03515625 50.49609375 C14.48444452 54.65833117 19.54689333 54.90462606 25.42578125 54.84375 C29.64225391 54.28197445 33.02042247 52.48866037 36.03515625 49.49609375 C38.49205616 44.88815968 38.31465398 40.48360928 38.30859375 35.3984375 C38.32887264 33.61001967 38.34972322 31.82160824 38.37109375 30.03320312 C38.39373501 27.22642578 38.41018469 24.41990176 38.41601562 21.61303711 C38.425526 18.89521087 38.45927055 16.17851159 38.49609375 13.4609375 C38.49104828 12.62231674 38.48600281 11.78369598 38.48080444 10.91966248 C38.54512595 7.11568289 38.58672218 5.12096979 40.85009766 1.96704102 C44.06570387 -0.19765479 46.25151645 -0.04442622 50.03515625 0.49609375 C52.21850586 1.92333984 52.21850586 1.92333984 54.03515625 4.49609375 C54.64528256 7.71435864 54.61936633 10.89209659 54.6015625 14.16015625 C54.60776108 15.1074057 54.61395966 16.05465515 54.62034607 17.03060913 C54.62744692 19.03618341 54.6242656 21.0418166 54.61157227 23.04736328 C54.59779703 26.08999919 54.63166391 29.12950314 54.66992188 32.171875 C54.67087404 34.12630283 54.66900902 36.08073445 54.6640625 38.03515625 C54.67732071 38.93344147 54.69057892 39.83172668 54.70423889 40.75723267 C54.59376439 48.40167788 52.27234889 54.84413375 47.15504456 60.61709595 C39.35816513 68.18365447 30.83783087 70.10469643 20.29541016 69.96679688 C11.11365887 69.58260608 4.44913007 66.67265204 -2.2734375 60.37109375 C-4.76215475 57.61223859 -6.33044462 54.83026798 -7.96484375 51.49609375 C-8.29484375 50.83609375 -8.62484375 50.17609375 -8.96484375 49.49609375 C-9.06943427 48.03147426 -9.11350227 46.56229037 -9.12597656 45.09399414 C-9.13558411 44.18287369 -9.14519165 43.27175323 -9.15509033 42.33302307 C-9.15934021 41.34656296 -9.16359009 40.36010284 -9.16796875 39.34375 C-9.17366882 38.33267685 -9.1793689 37.3216037 -9.1852417 36.27989197 C-9.19469791 34.13883514 -9.20122814 31.99776371 -9.20507812 29.85668945 C-9.21479391 26.5754268 -9.24581587 23.29478769 -9.27734375 20.01367188 C-9.28387261 17.93620165 -9.28912354 15.85872693 -9.29296875 13.78125 C-9.31148895 12.30459618 -9.31148895 12.30459618 -9.3303833 10.79811096 C-9.3273822 9.88383835 -9.3243811 8.96956573 -9.32128906 8.02758789 C-9.32493469 7.22309708 -9.32858032 6.41860626 -9.33233643 5.58973694 C-8.40482464 0.30560784 -4.80967666 0.139008 0 0 Z " fill="#020202" transform="translate(443.96484375,501.50390625)"/>
<path d="M0 0 C6.95863194 0.10366677 12.87509608 4.81557916 17.8125 9.375 C21.26536473 13.06914925 24.32149976 17.09977813 27.375 21.125 C28.1338147 22.10617798 28.1338147 22.10617798 28.90795898 23.10717773 C32.45185662 27.91266103 32.45185662 27.91266103 32.07836914 30.46313477 C31.08602176 33.24866523 29.9665865 35.96503953 28.8125 38.6875 C28.35746094 39.76515625 27.90242188 40.8428125 27.43359375 41.953125 C27.08425781 42.77296875 26.73492187 43.5928125 26.375 44.4375 C20.641914 44.71920542 15.92220302 43.74032604 10.4375 42.125 C9.67759766 41.91166016 8.91769531 41.69832031 8.13476562 41.47851562 C-1.17692004 38.81462605 -8.75452703 36.32651848 -15 28.4375 C-17.74319917 23.19314865 -17.35516431 17.16080811 -16.625 11.4375 C-14.32935109 6.59113008 -10.86278221 2.77727195 -5.8125 0.6875 C-3.874112 0.46596994 -1.93694999 0.23376983 0 0 Z " fill="#F9F9F9" transform="translate(148.625,462.5625)"/>
<path d="M0 0 C4.62511877 2.72320077 8.10750917 6.20329959 10.52734375 11.04296875 C11.7543229 27.49655797 11.7543229 27.49655797 6.52734375 34.04296875 C0.62168753 39.65334216 -4.19765727 40.57685326 -12.20703125 40.40625 C-17.04233382 39.86835151 -20.09990826 38.55889944 -23.47265625 35.04296875 C-28.13155358 28.89961884 -29.28963685 22.71227154 -28.94921875 15.09765625 C-27.97084277 8.8264266 -24.9573151 4.84482719 -19.97265625 1.04296875 C-13.96237373 -2.30366583 -6.37325602 -2.46674206 0 0 Z " fill="#FCFCFC" transform="translate(661.47265625,516.95703125)"/>
<path d="M0 0 C6.92052753 -0.54828123 11.56973776 2.10645802 16.96875 6.26171875 C21.34550192 10.43816166 23.11987953 14.29308316 23.40625 20.32421875 C23.32858196 26.83107432 21.21988047 31.37609119 16.96875 36.26171875 C12.5527525 39.84450918 7.87710318 40.8892586 2.26171875 40.5703125 C-5.38294873 39.54147309 -9.7089882 37.32378465 -14.62109375 31.296875 C-18.64655307 25.48727859 -18.90744602 20.23552383 -18.03125 13.26171875 C-16.03996743 8.16008572 -12.72022118 4.12084752 -8.03125 1.26171875 C-5.33294573 0.52581758 -2.75977223 0.35558604 0 0 Z " fill="#E9AB46" transform="translate(205.03125,492.73828125)"/>
<path d="M0 0 C1.36511719 0.00483398 1.36511719 0.00483398 2.7578125 0.00976562 C3.65242187 -0.00634766 4.54703125 -0.02246094 5.46875 -0.0390625 C10.71621602 -0.04293231 14.51443377 0.30548462 19.0078125 3.32226562 C21.8277766 7.55221178 21.80012438 11.35447011 21.0078125 16.32226562 C18.48105211 19.66851587 16.96847708 21.0020441 13.0078125 22.32226562 C9.65745228 22.54918245 6.3025774 22.50741295 2.9453125 22.50976562 C2.02169922 22.52201172 1.09808594 22.53425781 0.14648438 22.546875 C-0.73587891 22.54880859 -1.61824219 22.55074219 -2.52734375 22.55273438 C-3.3356665 22.55684326 -4.14398926 22.56095215 -4.97680664 22.56518555 C-6.9921875 22.32226562 -6.9921875 22.32226562 -8.9921875 20.32226562 C-9.25097656 18.47460938 -9.25097656 18.47460938 -9.2578125 16.25976562 C-9.26039063 15.463125 -9.26296875 14.66648437 -9.265625 13.84570312 C-9.25789062 13.01296875 -9.25015625 12.18023438 -9.2421875 11.32226562 C-9.24992188 10.48953125 -9.25765625 9.65679688 -9.265625 8.79882812 C-9.26304687 8.0021875 -9.26046875 7.20554687 -9.2578125 6.38476562 C-9.25555664 5.65386719 -9.25330078 4.92296875 -9.25097656 4.16992188 C-8.53805499 -0.92006915 -3.99244329 0.03257929 0 0 Z " fill="#FEFBF7" transform="translate(721.9921875,528.677734375)"/>
<path d="M0 0 C0.86882812 0.10699219 1.73765625 0.21398437 2.6328125 0.32421875 C3.49648437 0.42347656 4.36015625 0.52273438 5.25 0.625 C6.07757813 0.75261719 6.90515625 0.88023437 7.7578125 1.01171875 C8.46679688 1.09808594 9.17578125 1.18445313 9.90625 1.2734375 C12.60803966 2.35073338 13.17337393 3.96843583 14.5078125 6.51171875 C19.61201632 15.4536698 25.34411653 21.67531713 34.7578125 26.01171875 C32.69974217 30.49436508 30.08367863 33.00080143 25.50537109 34.99072266 C21.8649622 35.01854167 20.43744717 33.43974401 17.89663696 30.98422241 C17.30684052 30.38228058 16.71704407 29.78033875 16.109375 29.16015625 C15.18419571 28.24358749 15.18419571 28.24358749 14.24032593 27.3085022 C12.94042367 26.01268256 11.64806676 24.70925615 10.36279297 23.39892578 C8.38986921 21.39389032 6.38702244 19.42284132 4.37890625 17.453125 C3.12046751 16.19072142 1.86389129 14.92645786 0.609375 13.66015625 C-0.29353775 12.77546158 -0.29353775 12.77546158 -1.21469116 11.87289429 C-5.24448616 7.70313083 -5.24448616 7.70313083 -5.23291016 4.22119141 C-3.95211861 1.36481796 -3.26420553 0.01706031 0 0 Z " fill="#E7AA46" transform="translate(164.2421875,517.98828125)"/>
<path d="M0 0 C0.80759766 -0.03287109 1.61519531 -0.06574219 2.44726562 -0.09960938 C6.79887733 -0.13881308 8.65513246 0.04280203 12.25390625 2.7109375 C14.82762592 6.34014221 14.82762592 6.34014221 14.3125 9.5 C14.23257813 10.15097656 14.15265625 10.80195313 14.0703125 11.47265625 C12.68469811 14.55656792 11.08459165 15.70533614 8.1875 17.4375 C5.27146968 17.95109433 2.45224657 17.90765299 -0.5 17.8125 C-1.65725586 17.81056641 -1.65725586 17.81056641 -2.83789062 17.80859375 C-8.53090339 17.71909661 -8.53090339 17.71909661 -10.8125 15.4375 C-11.078125 12.46875 -11.078125 12.46875 -11.0625 8.9375 C-11.06765625 7.7721875 -11.0728125 6.606875 -11.078125 5.40625 C-10.49180645 -1.14672204 -5.28542264 0.03742628 0 0 Z " fill="#FEFCFA" transform="translate(723.8125,494.5625)"/>
<path d="M0 0 C1.84765625 1.16796875 1.84765625 1.16796875 3.84765625 4.16796875 C3.84765625 5.48796875 3.84765625 6.80796875 3.84765625 8.16796875 C-6.38234375 8.16796875 -16.61234375 8.16796875 -27.15234375 8.16796875 C-26.15234375 3.16796875 -26.15234375 3.16796875 -24.62890625 1.62109375 C-24.01789062 1.2240625 -23.406875 0.82703125 -22.77734375 0.41796875 C-22.17148437 0.010625 -21.565625 -0.39671875 -20.94140625 -0.81640625 C-13.99613937 -4.75913417 -6.86978629 -3.16228258 0 0 Z " fill="#FEFCF9" transform="translate(810.15234375,518.83203125)"/>
<path d="M0 0 C1.8755599 1.26876111 3.31968027 2.38563022 4.7265625 4.16796875 C4.7265625 5.48796875 4.7265625 6.80796875 4.7265625 8.16796875 C-5.5034375 8.16796875 -15.7334375 8.16796875 -26.2734375 8.16796875 C-25.2734375 3.16796875 -25.2734375 3.16796875 -23.0234375 0.98046875 C-15.33304097 -4.08820169 -8.09712908 -4.34845821 0 0 Z " fill="#FEFCF9" transform="translate(881.2734375,518.83203125)"/>
<path d="M0 0 C4.90687153 3.9939652 9.44270563 8.3040953 13.9375 12.75 C14.52942139 13.32903076 15.12134277 13.90806152 15.73120117 14.50463867 C17.19409125 15.96410929 18.60214515 17.47812494 20 19 C20 19.66 20 20.32 20 21 C8.05644699 21.56475645 8.05644699 21.56475645 4 18 C1.25111203 15.15457068 0.07602929 13.64852988 -0.390625 9.66796875 C-0.34421875 8.51941406 -0.2978125 7.37085938 -0.25 6.1875 C-0.21390625 5.02605469 -0.1778125 3.86460937 -0.140625 2.66796875 C-0.07101563 1.34732422 -0.07101563 1.34732422 0 0 Z " fill="#ECAF46" transform="translate(154,538)"/>
<path d="M0 0 C3.625 0.25 3.625 0.25 5.5625 1.4375 C7.01218434 3.91049093 7.04817323 5.42884512 6.625 8.25 C5.5625 10.125 5.5625 10.125 3.625 11.25 C-2.70833333 10.91666667 -2.70833333 10.91666667 -5.375 8.25 C-4.68173643 0.34679529 -4.68173643 0.34679529 0 0 Z " fill="#0C0906" transform="translate(209.375,504.75)"/>
<path d="M0 0 C2.86021837 2.86021837 2 5.04657104 2 9 C2.6469365 10.6744239 3.30959426 12.34302621 4 14 C3.67 14.99 3.34 15.98 3 17 C0.65709108 14.51565563 0.02017066 13.22268407 -0.29296875 9.765625 C-0.24076172 8.02539062 -0.24076172 8.02539062 -0.1875 6.25 C-0.16042969 5.07953125 -0.13335937 3.9090625 -0.10546875 2.703125 C-0.07066406 1.81109375 -0.03585938 0.9190625 0 0 Z " fill="#CF9D3C" transform="translate(154,538)"/>
<path d="M0 0 C0.66 0.33 1.32 0.66 2 1 C0.71451591 2.33929505 -0.57858155 3.67128643 -1.875 5 C-2.59429687 5.7425 -3.31359375 6.485 -4.0546875 7.25 C-6 9 -6 9 -8 9 C-6.4169423 4.7257442 -3.49431596 2.73468206 0 0 Z " fill="#323332" transform="translate(132,455)"/>
<path d="M0 0 C0.66 0.33 1.32 0.66 2 1 C0.88121617 2.17262904 -0.24523051 3.33795138 -1.375 4.5 C-2.00148437 5.1496875 -2.62796875 5.799375 -3.2734375 6.46875 C-5 8 -5 8 -7 8 C-5.50902342 4.2047869 -3.24299151 2.38957269 0 0 Z " fill="#C5C5C5" transform="translate(141,464)"/>
<path d="M0 0 C0.66 0.33 1.32 0.66 2 1 C2 1.99 2 2.98 2 4 C-0.64 4.66 -3.28 5.32 -6 6 C-4 4 -2 2 0 0 Z " fill="#CA9338" transform="translate(197,494)"/>
<path d="M0 0 C1.32 0 2.64 0 4 0 C3.34 1.32 2.68 2.64 2 4 C1.01 4 0.02 4 -1 4 C-0.67 2.68 -0.34 1.36 0 0 Z " fill="#DBA03D" transform="translate(195,544)"/>
</svg>
